Adsworth-Widthmin.ufo
<glyph name="ampersand" format="2">
  <advance width="908"/>
  <unicode hex="0026"/>
  <outline>
    <contour>
      <point x="448" y="564" type="line"/>
      <point x="883" y="695" type="line"/>
      <point x="941" y="557" type="line"/>
      <point x="506" y="426" type="line"/>
    </contour>
    <contour>
      <point x="531" y="721" type="line"/>
      <point x="403" y="721" type="line" smooth="yes"/>
      <point x="306" y="721"/>
      <point x="209" y="614"/>
      <point x="209" y="462" type="qcurve" smooth="yes"/>
      <point x="209" y="405" type="line" smooth="yes"/>
      <point x="209" y="234"/>
      <point x="329" y="118"/>
      <point x="424" y="118" type="qcurve" smooth="yes"/>
      <point x="448" y="118" type="line" smooth="yes"/>
      <point x="581" y="118"/>
      <point x="687" y="279"/>
      <point x="687" y="412" type="qcurve" smooth="yes"/>
      <point x="687" y="432" type="line" smooth="yes"/>
      <point x="687" y="452"/>
      <point x="684" y="489"/>
      <point x="681" y="507" type="qcurve"/>
      <point x="826" y="557" type="line"/>
      <point x="834" y="530"/>
      <point x="845" y="461"/>
      <point x="845" y="431" type="qcurve" smooth="yes"/>
      <point x="845" y="401" type="line" smooth="yes"/>
      <point x="845" y="212"/>
      <point x="604" y="-25"/>
      <point x="445" y="-25" type="qcurve" smooth="yes"/>
      <point x="416" y="-25" type="line" smooth="yes"/>
      <point x="267" y="-25"/>
      <point x="48" y="194"/>
      <point x="48" y="403" type="qcurve" smooth="yes"/>
      <point x="48" y="472" type="line" smooth="yes"/>
      <point x="48" y="620"/>
      <point x="167" y="779"/>
      <point x="264" y="810" type="qcurve"/>
      <point x="189" y="837"/>
      <point x="98" y="968"/>
      <point x="98" y="1049" type="qcurve" smooth="yes"/>
      <point x="98" y="1218" type="line" smooth="yes"/>
      <point x="98" y="1350"/>
      <point x="271" y="1523"/>
      <point x="391" y="1523" type="qcurve" smooth="yes"/>
      <point x="437" y="1523" type="line" smooth="yes"/>
      <point x="553" y="1523"/>
      <point x="699" y="1390"/>
      <point x="707" y="1271" type="qcurve" smooth="yes"/>
      <point x="707" y="1130" type="line"/>
      <point x="551" y="1130" type="line"/>
      <point x="551" y="1244" type="line" smooth="yes"/>
      <point x="551" y="1302"/>
      <point x="478" y="1373"/>
      <point x="414" y="1373" type="qcurve" smooth="yes"/>
      <point x="390" y="1373" type="line" smooth="yes"/>
      <point x="326" y="1373"/>
      <point x="254" y="1286.0"/>
      <point x="254" y="1200" type="qcurve" smooth="yes"/>
      <point x="254" y="1063" type="line" smooth="yes"/>
      <point x="254" y="975"/>
      <point x="367" y="870"/>
      <point x="484" y="869" type="qcurve" smooth="yes"/>
      <point x="557" y="868" type="line"/>
    </contour>
  </outline>
</glyph>
<glyph name="asterisk" format="2">
  <advance width="813"/>
  <unicode hex="002A"/>
  <outline>
    <contour>
      <point x="406" y="1020" type="line"/>
      <point x="231" y="761" type="line"/>
      <point x="96" y="836" type="line"/>
      <point x="298" y="1100" type="line"/>
      <point x="40" y="1213" type="line"/>
      <point x="116" y="1353" type="line"/>
      <point x="338" y="1228" type="line"/>
      <point x="334" y="1536" type="line"/>
      <point x="478" y="1536" type="line"/>
      <point x="473" y="1228" type="line"/>
      <point x="697" y="1353" type="line"/>
      <point x="773" y="1214" type="line"/>
      <point x="514" y="1100" type="line"/>
      <point x="716" y="846" type="line"/>
      <point x="580" y="761" type="line"/>
    </contour>
  </outline>
</glyph>
<glyph name="plus" format="2">
  <advance width="750"/>
  <unicode hex="002B"/>
  <outline>
    <contour>
      <point x="706" y="690" type="line"/>
      <point x="46" y="690" type="line"/>
      <point x="46" y="835" type="line"/>
      <point x="706" y="835" type="line"/>
    </contour>
    <contour>
      <point x="448.0" y="1152.0" type="line"/>
      <point x="448.0" y="372.0" type="line"/>
      <point x="303.0" y="372.0" type="line"/>
      <point x="303.0" y="1152.0" type="line"/>
    </contour>
  </outline>
</glyph>
<glyph name="period" format="2">
  <advance width="430"/>
  <unicode hex="002E"/>
  <outline>
    <contour>
      <point x="213" y="-16" type="line" smooth="yes"/>
      <point x="265" y="-16"/>
      <point x="325" y="44"/>
      <point x="325" y="93" type="qcurve" smooth="yes"/>
      <point x="325" y="100" type="line" smooth="yes"/>
      <point x="325" y="149"/>
      <point x="266" y="210"/>
      <point x="213" y="210" type="qcurve" smooth="yes"/>
      <point x="211" y="210" type="line" smooth="yes"/>
      <point x="162" y="210"/>
      <point x="105" y="149"/>
      <point x="105" y="100" type="qcurve" smooth="yes"/>
      <point x="105" y="93" type="line" smooth="yes"/>
      <point x="105" y="43"/>
      <point x="161" y="-16"/>
      <point x="211" y="-16" type="qcurve" smooth="yes"/>
    </contour>
  </outline>
</glyph>
<glyph name="one" format="2">
  <advance width="464"/>
  <unicode hex="0031"/>
  <outline>
    <contour>
      <point x="152" y="0" type="line"/>
      <point x="152" y="1500" type="line"/>
      <point x="312" y="1500" type="line"/>
      <point x="312" y="0" type="line"/>
    </contour>
  </outline>
</glyph>
<glyph name="nine" format="2">
  <advance width="726"/>
  <unicode hex="0039"/>
  <outline>
    <contour>
      <point x="538" y="1007" type="qcurve"/>
      <point x="538.0" y="1098" type="line" smooth="yes"/>
      <point x="538.0" y="1228"/>
      <point x="434.0" y="1366"/>
      <point x="348.0" y="1366" type="qcurve" smooth="yes"/>
      <point x="345" y="1366" type="line" smooth="yes"/>
      <point x="264" y="1366"/>
      <point x="184" y="1228"/>
      <point x="184" y="1082" type="qcurve" smooth="yes"/>
      <point x="184" y="961" type="line" smooth="yes"/>
      <point x="184" y="819"/>
      <point x="272" y="687"/>
      <point x="354" y="687" type="qcurve" smooth="yes"/>
      <point x="362" y="687" type="line" smooth="yes"/>
      <point x="438" y="687"/>
      <point x="532" y="817"/>
      <point x="544" y="986" type="qcurve" smooth="yes"/>
      <point x="545" y="1000" type="line"/>
      <point x="628" y="995" type="line"/>
      <point x="628" y="981" type="line" smooth="yes"/>
      <point x="628" y="792"/>
      <point x="473" y="540"/>
      <point x="344" y="540" type="qcurve" smooth="yes"/>
      <point x="339" y="540" type="line" smooth="yes"/>
      <point x="193" y="540"/>
      <point x="26" y="743"/>
      <point x="26" y="908" type="qcurve" smooth="yes"/>
      <point x="26" y="1133" type="line" smooth="yes"/>
      <point x="26" y="1297"/>
      <point x="203" y="1514"/>
      <point x="346" y="1514" type="qcurve" smooth="yes"/>
      <point x="351.0" y="1514" type="line" smooth="yes"/>
      <point x="492.0" y="1514"/>
      <point x="686.0" y="1326"/>
      <point x="686.0" y="1133" type="qcurve" smooth="yes"/>
      <point x="686" y="829" type="line" smooth="yes"/>
      <point x="686" y="362"/>
      <point x="390" y="-19"/>
      <point x="164" y="-19" type="qcurve" smooth="yes"/>
      <point x="140" y="-19" type="line"/>
      <point x="140" y="123" type="line"/>
      <point x="159" y="124" type="line" smooth="yes"/>
      <point x="336" y="133"/>
      <point x="553" y="486"/>
    </contour>
  </outline>
</glyph>
<glyph name="greater" format="2">
  <advance width="750"/>
  <unicode hex="003E"/>
  <outline>
    <contour>
      <point x="692.0" y="806.0" type="line"/>
      <point x="692.0" y="646.0" type="line"/>
      <point x="52.0" y="270.0" type="line"/>
      <point x="52.0" y="462.0" type="line"/>
      <point x="508.0" y="726.0" type="line"/>
      <point x="52.0" y="996.0" type="line"/>
      <point x="52.0" y="1186.0" type="line"/>
    </contour>
  </outline>
</glyph>
<glyph name="A" format="2">
  <advance width="580"/>
  <unicode hex="0041"/>
  <outline>
    <contour>
      <point x="420" y="411" type="line"/>
      <point x="140" y="411" type="line"/>
      <point x="140" y="545" type="line"/>
      <point x="420" y="545" type="line"/>
    </contour>
    <contour>
      <point x="410" y="1500" type="line"/>
      <point x="580" y="0" type="line"/>
      <point x="423" y="0" type="line"/>
      <point x="290" y="1325" type="line"/>
      <point x="150" y="0" type="line"/>
      <point x="0" y="0" type="line"/>
      <point x="180" y="1500" type="line"/>
    </contour>
  </outline>
</glyph>
<glyph name="C" format="2">
  <advance width="1306"/>
  <unicode hex="0043"/>
  <outline>
    <contour>
      <point x="693" y="115" type="line" smooth="yes"/>
      <point x="878" y="115"/>
      <point x="1115" y="328"/>
      <point x="1108" y="505" type="qcurve" smooth="yes"/>
      <point x="1108" y="552" type="line"/>
      <point x="1272" y="552" type="line"/>
      <point x="1272" y="500" type="line" smooth="yes"/>
      <point x="1272" y="275"/>
      <point x="968" y="-24"/>
      <point x="690" y="-24" type="qcurve" smooth="yes"/>
      <point x="680" y="-24" type="line" smooth="yes"/>
      <point x="404" y="-24"/>
      <point x="70" y="381"/>
      <point x="70" y="724" type="qcurve" smooth="yes"/>
      <point x="70" y="775" type="line" smooth="yes"/>
      <point x="70" y="1119"/>
      <point x="400.0" y="1524.0"/>
      <point x="675" y="1524" type="qcurve" smooth="yes"/>
      <point x="686" y="1524" type="line" smooth="yes"/>
      <point x="941" y="1524"/>
      <point x="1270" y="1234"/>
      <point x="1270" y="979" type="qcurve" smooth="yes"/>
      <point x="1271" y="947" type="line"/>
      <point x="1101" y="947" type="line"/>
      <point x="1101" y="974" type="line" smooth="yes"/>
      <point x="1101" y="1166"/>
      <point x="878" y="1382"/>
      <point x="689" y="1382" type="qcurve" smooth="yes"/>
      <point x="679" y="1382" type="line" smooth="yes"/>
      <point x="456.0" y="1382.0"/>
      <point x="234" y="1043"/>
      <point x="234" y="769" type="qcurve" smooth="yes"/>
      <point x="234" y="727" type="line" smooth="yes"/>
      <point x="234" y="447.0"/>
      <point x="467" y="115"/>
      <point x="687" y="115" type="qcurve" smooth="yes"/>
    </contour>
  </outline>
</glyph>
<glyph name="J" format="2">
  <advance width="651"/>
  <unicode hex="004A"/>
  <outline>
    <contour>
      <point x="586" y="341" type="line" smooth="yes"/>
      <point x="586.0" y="175"/>
      <point x="440.0" y="-15.0"/>
      <point x="310" y="-15" type="qcurve" smooth="yes"/>
      <point x="300" y="-15" type="line" smooth="yes"/>
      <point x="169" y="-15"/>
      <point x="18" y="133"/>
      <point x="20" y="272" type="qcurve" smooth="yes"/>
      <point x="21" y="364" type="line"/>
      <point x="172" y="364" type="line"/>
      <point x="172" y="266" type="line" smooth="yes"/>
      <point x="172" y="197.0"/>
      <point x="241" y="135"/>
      <point x="296" y="135" type="qcurve" smooth="yes"/>
      <point x="307" y="135" type="line" smooth="yes"/>
      <point x="360.0" y="135.0"/>
      <point x="426.0" y="220.0"/>
      <point x="426" y="322" type="qcurve" smooth="yes"/>
      <point x="426" y="1500" type="line"/>
      <point x="586" y="1500" type="line"/>
    </contour>
  </outline>
</glyph>
<glyph name="L" format="2">
  <advance width="633"/>
  <unicode hex="004C"/>
  <outline>
    <contour>
      <point x="126" y="0" type="line"/>
      <point x="126" y="1500" type="line"/>
      <point x="286" y="1500" type="line"/>
      <point x="286" y="0" type="line"/>
    </contour>
    <contour>
      <point x="616" y="0" type="line"/>
      <point x="206" y="0" type="line"/>
      <point x="206" y="145" type="line"/>
      <point x="616" y="145" type="line"/>
    </contour>
  </outline>
</glyph>
<glyph name="M" format="2">
  <advance width="1077"/>
  <unicode hex="004D"/>
  <outline>
    <contour>
      <point x="126" y="0" type="line"/>
      <point x="126" y="1500" type="line"/>
      <point x="281" y="1500" type="line"/>
      <point x="536" y="274" type="line"/>
      <point x="537" y="274" type="line"/>
      <point x="794" y="1500" type="line"/>
      <point x="951" y="1500" type="line"/>
      <point x="951" y="0" type="line"/>
      <point x="796" y="0" type="line"/>
      <point x="796" y="965" type="line"/>
      <point x="610" y="29" type="line"/>
      <point x="604" y="0" type="line"/>
      <point x="464" y="0" type="line"/>
      <point x="459" y="26" type="line"/>
      <point x="276" y="955" type="line"/>
      <point x="276" y="0" type="line"/>
    </contour>
  </outline>
</glyph>
<glyph name="N" format="2">
  <advance width="807"/>
  <unicode hex="004E"/>
  <outline>
    <contour>
      <point x="126" y="0" type="line"/>
      <point x="126" y="1500" type="line"/>
      <point x="280" y="1500" type="line"/>
      <point x="281" y="1500" type="line"/>
      <point x="281" y="1498" type="line"/>
      <point x="536" y="465" type="line"/>
      <point x="536" y="1500" type="line"/>
      <point x="681" y="1500" type="line"/>
      <point x="681" y="0" type="line"/>
      <point x="521" y="0" type="line"/>
      <point x="271" y="1016" type="line"/>
      <point x="271" y="0" type="line"/>
    </contour>
  </outline>
</glyph>
<glyph name="R" format="2">
  <advance width="1136"/>
  <unicode hex="0052"/>
  <outline>
    <contour>
      <point x="126" y="0" type="line"/>
      <point x="126" y="1500" type="line"/>
      <point x="286" y="1500" type="line"/>
      <point x="286" y="0" type="line"/>
    </contour>
    <contour>
      <point x="627" y="643" type="qcurve" smooth="yes"/>
      <point x="206" y="643" type="line"/>
      <point x="206" y="782" type="line"/>
      <point x="559" y="782" type="line" smooth="yes"/>
      <point x="724" y="782"/>
      <point x="861" y="932"/>
      <point x="861" y="1081" type="qcurve" smooth="yes"/>
      <point x="861" y="1097" type="line" smooth="yes"/>
      <point x="861" y="1231"/>
      <point x="714" y="1355"/>
      <point x="579" y="1355" type="qcurve" smooth="yes"/>
      <point x="206" y="1355" type="line"/>
      <point x="206" y="1500" type="line"/>
      <point x="606" y="1500" type="line" smooth="yes"/>
      <point x="793" y="1500"/>
      <point x="1020" y="1298"/>
      <point x="1020" y="1100" type="qcurve" smooth="yes"/>
      <point x="1020" y="1084" type="line" smooth="yes"/>
      <point x="1020" y="869"/>
      <point x="775" y="643"/>
    </contour>
    <contour>
      <point x="652" y="759" type="line"/>
      <point x="1184" y="0" type="line"/>
      <point x="986" y="0" type="line"/>
      <point x="547" y="651" type="line"/>
    </contour>
  </outline>
</glyph>
<glyph name="S" format="2">
  <advance width="732"/>
  <unicode hex="0053"/>
  <outline>
    <contour>
      <point x="519" y="413" type="line" smooth="yes"/>
      <point x="519" y="531"/>
      <point x="448" y="652"/>
      <point x="332" y="725" type="qcurve" smooth="yes"/>
      <point x="190" y="814"/>
      <point x="74" y="954"/>
      <point x="74" y="1093" type="qcurve" smooth="yes"/>
      <point x="74" y="1252" type="line" smooth="yes"/>
      <point x="74" y="1377"/>
      <point x="251.0" y="1514.0"/>
      <point x="373" y="1514" type="qcurve" smooth="yes"/>
      <point x="387" y="1514" type="line" smooth="yes"/>
      <point x="510" y="1514"/>
      <point x="663" y="1370"/>
      <point x="664" y="1257" type="qcurve" smooth="yes"/>
      <point x="664" y="1086" type="line"/>
      <point x="495" y="1086" type="line"/>
      <point x="495" y="1229" type="line" smooth="yes"/>
      <point x="495" y="1291"/>
      <point x="437" y="1357"/>
      <point x="383" y="1357" type="qcurve" smooth="yes"/>
      <point x="369" y="1357" type="line" smooth="yes"/>
      <point x="308.0" y="1357.0"/>
      <point x="240" y="1285"/>
      <point x="240" y="1232" type="qcurve" smooth="yes"/>
      <point x="240" y="1117" type="line" smooth="yes"/>
      <point x="240" y="1034"/>
      <point x="302" y="940"/>
      <point x="415" y="871" type="qcurve" smooth="yes"/>
      <point x="547" y="790"/>
      <point x="684" y="627"/>
      <point x="684" y="486" type="qcurve" smooth="yes"/>
      <point x="684" y="293" type="line" smooth="yes"/>
      <point x="684" y="170"/>
      <point x="524" y="-15"/>
      <point x="391" y="-15" type="qcurve" smooth="yes"/>
      <point x="358" y="-15" type="line" smooth="yes"/>
      <point x="217" y="-15"/>
      <point x="64" y="184"/>
      <point x="63" y="311" type="qcurve" smooth="yes"/>
      <point x="63" y="451" type="line"/>
      <point x="231" y="451" type="line"/>
      <point x="231" y="289" type="line" smooth="yes"/>
      <point x="231" y="211.0"/>
      <point x="297.0" y="131.0"/>
      <point x="354" y="131" type="qcurve" smooth="yes"/>
      <point x="402" y="131" type="line" smooth="yes"/>
      <point x="460" y="131.0"/>
      <point x="519.0" y="204.0"/>
      <point x="519" y="281" type="qcurve" smooth="yes"/>
    </contour>
  </outline>
</glyph>
<glyph name="U" format="2">
  <advance width="1402"/>
  <unicode hex="0055"/>
  <outline>
    <contour>
      <point x="172" y="1500" type="line"/>
      <point x="332" y="1500" type="line"/>
      <point x="332" y="563" type="line" smooth="yes"/>
      <point x="332.0" y="356.0"/>
      <point x="518" y="115"/>
      <point x="695" y="115" type="qcurve" smooth="yes"/>
      <point x="703" y="115" type="line" smooth="yes"/>
      <point x="886" y="115"/>
      <point x="1073" y="353"/>
      <point x="1073.0" y="563" type="qcurve" smooth="yes"/>
      <point x="1073" y="1500" type="line"/>
      <point x="1230" y="1500" type="line"/>
      <point x="1226" y="528" type="line" smooth="yes"/>
      <point x="1225" y="247"/>
      <point x="924.0" y="-26.0"/>
      <point x="706" y="-26" type="qcurve" smooth="yes"/>
      <point x="697" y="-26" type="line" smooth="yes"/>
      <point x="458.0" y="-26"/>
      <point x="172" y="286.0"/>
      <point x="172" y="554" type="qcurve" smooth="yes"/>
    </contour>
  </outline>
</glyph>
<glyph name="X" format="2">
  <advance width="570"/>
  <unicode hex="0058"/>
  <outline>
    <contour>
      <point x="0" y="0" type="line"/>
      <point x="225" y="893" type="line"/>
      <point x="251" y="893" type="line"/>
      <point x="382" y="1500" type="line"/>
      <point x="542" y="1500" type="line"/>
      <point x="347" y="689" type="line"/>
      <point x="321" y="689" type="line"/>
      <point x="160" y="0" type="line"/>
    </contour>
    <contour>
      <point x="411" y="0" type="line"/>
      <point x="242" y="639" type="line"/>
      <point x="223" y="709" type="line"/>
      <point x="13" y="1500" type="line"/>
      <point x="173" y="1500" type="line"/>
      <point x="326" y="923" type="line"/>
      <point x="344" y="855" type="line"/>
      <point x="570" y="0" type="line"/>
    </contour>
  </outline>
</glyph>
<glyph name="asciicircum" format="2">
  <advance width="1072"/>
  <unicode hex="005E"/>
  <outline>
    <contour>
      <point x="618" y="1513" type="line"/>
      <point x="944" y="833" type="line"/>
      <point x="752" y="833" type="line"/>
      <point x="546" y="1335" type="line"/>
      <point x="319" y="833" type="line"/>
      <point x="128" y="833" type="line"/>
      <point x="458" y="1513" type="line"/>
    </contour>
  </outline>
</glyph>
<glyph name="b" format="2">
  <advance width="760"/>
  <unicode hex="0062"/>
  <outline>
    <contour>
      <point x="106" y="0" type="line"/>
      <point x="106" y="1500" type="line"/>
      <point x="261" y="1500" type="line"/>
      <point x="261" y="0" type="line"/>
    </contour>
    <contour>
      <point x="215" y="715" type="line" smooth="yes"/>
      <point x="215" y="848"/>
      <point x="337" y="1020"/>
      <point x="439" y="1020" type="qcurve" smooth="yes"/>
      <point x="452" y="1020" type="line" smooth="yes"/>
      <point x="565.0" y="1020.0"/>
      <point x="710" y="848"/>
      <point x="710" y="715" type="qcurve" smooth="yes"/>
      <point x="710" y="335" type="line" smooth="yes"/>
      <point x="710.0" y="175.0"/>
      <point x="564.0" y="-15.0"/>
      <point x="441" y="-15" type="qcurve" smooth="yes"/>
      <point x="435.0" y="-15.0" type="line" smooth="yes"/>
      <point x="335" y="-15"/>
      <point x="215.0" y="131"/>
      <point x="215.0" y="247" type="qcurve" smooth="yes"/>
    </contour>
    <contour>
      <point x="262.0" y="671" type="qcurve" smooth="yes"/>
      <point x="262" y="318" type="line" smooth="yes"/>
      <point x="262.0" y="232.0"/>
      <point x="344" y="116"/>
      <point x="411" y="116" type="qcurve" smooth="yes"/>
      <point x="414" y="116" type="line" smooth="yes"/>
      <point x="483" y="116"/>
      <point x="557" y="227"/>
      <point x="557" y="318" type="qcurve" smooth="yes"/>
      <point x="557" y="687" type="line" smooth="yes"/>
      <point x="557" y="774"/>
      <point x="475.0" y="883.0"/>
      <point x="408" y="883" type="qcurve" smooth="yes"/>
      <point x="405.0" y="883.0" type="line" smooth="yes"/>
      <point x="343.0" y="883.0"/>
      <point x="262.0" y="792"/>
    </contour>
  </outline>
</glyph>
<glyph name="c" format="2">
  <advance width="634"/>
  <unicode hex="0063"/>
  <outline>
    <contour>
      <point x="614" y="362" type="line"/>
      <point x="613" y="299" type="line" smooth="yes"/>
      <point x="611" y="147"/>
      <point x="480" y="-15"/>
      <point x="346" y="-15" type="qcurve" smooth="yes"/>
      <point x="336" y="-15" type="line" smooth="yes"/>
      <point x="214" y="-15"/>
      <point x="50" y="149"/>
      <point x="50" y="334" type="qcurve" smooth="yes"/>
      <point x="50" y="710" type="line" smooth="yes"/>
      <point x="50" y="844"/>
      <point x="208" y="1020"/>
      <point x="328" y="1020" type="qcurve" smooth="yes"/>
      <point x="347" y="1020" type="line" smooth="yes"/>
      <point x="466" y="1020"/>
      <point x="611" y="868"/>
      <point x="612" y="726" type="qcurve" smooth="yes"/>
      <point x="614" y="620" type="line"/>
      <point x="460" y="621" type="line"/>
      <point x="459" y="702" type="line" smooth="yes"/>
      <point x="458" y="798"/>
      <point x="394" y="883"/>
      <point x="340" y="883" type="qcurve" smooth="yes"/>
      <point x="333" y="883" type="line" smooth="yes"/>
      <point x="273" y="883"/>
      <point x="207" y="781"/>
      <point x="207" y="684" type="qcurve" smooth="yes"/>
      <point x="207" y="312" type="line" smooth="yes"/>
      <point x="207" y="224"/>
      <point x="270" y="119"/>
      <point x="338" y="119" type="qcurve" smooth="yes"/>
      <point x="345" y="119" type="line" smooth="yes"/>
      <point x="402" y="119"/>
      <point x="458" y="197"/>
      <point x="460" y="283" type="qcurve" smooth="yes"/>
      <point x="461" y="364" type="line"/>
    </contour>
  </outline>
</glyph>
<glyph name="g" format="2">
  <advance width="760"/>
  <unicode hex="0067"/>
  <outline>
    <contour>
      <point x="545" y="722" type="qcurve" smooth="yes"/>
      <point x="545" y="243" type="line" smooth="yes"/>
      <point x="545" y="126"/>
      <point x="419" y="-15"/>
      <point x="317" y="-15" type="qcurve" smooth="yes"/>
      <point x="309" y="-15" type="line" smooth="yes"/>
      <point x="196" y="-15"/>
      <point x="50" y="171"/>
      <point x="50" y="345" type="qcurve" smooth="yes"/>
      <point x="50" y="710" type="line" smooth="yes"/>
      <point x="50" y="850"/>
      <point x="198" y="1020"/>
      <point x="311" y="1020" type="qcurve" smooth="yes"/>
      <point x="315" y="1020" type="line" smooth="yes"/>
      <point x="417" y="1020"/>
      <point x="545" y="856"/>
    </contour>
    <contour>
      <point x="499" y="659" type="line" smooth="yes"/>
      <point x="499" y="786"/>
      <point x="416" y="882"/>
      <point x="351" y="882" type="qcurve" smooth="yes"/>
      <point x="347" y="882" type="line" smooth="yes"/>
      <point x="277" y="882"/>
      <point x="205" y="772"/>
      <point x="205" y="686" type="qcurve" smooth="yes"/>
      <point x="205" y="318" type="line" smooth="yes"/>
      <point x="205" y="226"/>
      <point x="278" y="114"/>
      <point x="347" y="114" type="qcurve" smooth="yes"/>
      <point x="351" y="114" type="line" smooth="yes"/>
      <point x="418" y="114"/>
      <point x="499" y="237"/>
      <point x="499" y="347" type="qcurve" smooth="yes"/>
    </contour>
    <contour>
      <point x="125" y="-332" type="line"/>
      <point x="145" y="-337"/>
      <point x="212" y="-350"/>
      <point x="248" y="-350" type="qcurve" smooth="yes"/>
      <point x="366" y="-350"/>
      <point x="499" y="-230"/>
      <point x="499" y="-71" type="qcurve" smooth="yes"/>
      <point x="499" y="1000" type="line"/>
      <point x="654" y="1000" type="line"/>
      <point x="654" y="-77" type="line" smooth="yes"/>
      <point x="654" y="-257"/>
      <point x="454" y="-500"/>
      <point x="270" y="-500" type="qcurve" smooth="yes"/>
      <point x="238" y="-500"/>
      <point x="154" y="-491"/>
      <point x="133" y="-484" type="qcurve"/>
    </contour>
  </outline>
</glyph>
<glyph name="k" format="2">
  <advance width="687"/>
  <unicode hex="006B"/>
  <outline>
    <contour>
      <point x="106" y="0" type="line"/>
      <point x="106" y="1500" type="line"/>
      <point x="260" y="1500" type="line"/>
      <point x="260" y="0" type="line"/>
    </contour>
    <contour>
      <point x="370" y="531" type="line"/>
      <point x="260" y="368" type="line"/>
      <point x="260" y="563" type="line"/>
      <point x="455" y="997" type="line"/>
      <point x="633" y="997" type="line"/>
      <point x="518" y="773" type="line"/>
      <point x="414" y="572" type="line"/>
    </contour>
    <contour>
      <point x="442" y="669" type="line"/>
      <point x="675" y="0" type="line"/>
      <point x="504" y="0" type="line"/>
      <point x="335" y="536" type="line"/>
    </contour>
  </outline>
</glyph>
<glyph name="m" format="2">
  <advance width="1060"/>
  <unicode hex="006D"/>
  <outline>
    <contour>
      <point x="106" y="0" type="line"/>
      <point x="106" y="1000" type="line"/>
      <point x="260" y="1000" type="line"/>
      <point x="260" y="0" type="line"/>
    </contour>
    <contour>
      <point x="553" y="803" type="line"/>
      <point x="575" y="903"/>
      <point x="701" y="1020"/>
      <point x="787" y="1020" type="qcurve" smooth="yes"/>
      <point x="881" y="1020"/>
      <point x="965" y="910"/>
      <point x="966" y="806" type="qcurve" smooth="yes"/>
      <point x="966" y="0" type="line"/>
      <point x="812" y="0" type="line"/>
      <point x="812" y="775" type="line" smooth="yes"/>
      <point x="812.0" y="829.0"/>
      <point x="778" y="880"/>
      <point x="736" y="880" type="qcurve" smooth="yes"/>
      <point x="679" y="880"/>
      <point x="612" y="797"/>
      <point x="575" y="709" type="qcurve"/>
    </contour>
    <contour>
      <point x="200" y="803" type="line"/>
      <point x="222" y="903"/>
      <point x="348" y="1020"/>
      <point x="434" y="1020" type="qcurve" smooth="yes"/>
      <point x="528" y="1020"/>
      <point x="612" y="910"/>
      <point x="613" y="806" type="qcurve" smooth="yes"/>
      <point x="613" y="0" type="line"/>
      <point x="459" y="0" type="line"/>
      <point x="459" y="775" type="line" smooth="yes"/>
      <point x="459.0" y="829.0"/>
      <point x="425" y="880"/>
      <point x="383" y="880" type="qcurve" smooth="yes"/>
      <point x="326" y="880"/>
      <point x="259" y="797"/>
      <point x="222" y="709" type="qcurve"/>
    </contour>
  </outline>
</glyph>
<glyph name="o" format="2">
  <advance width="697"/>
  <unicode hex="006F"/>
  <outline>
    <contour>
      <point x="344" y="-15" type="line" smooth="yes"/>
      <point x="214" y="-15"/>
      <point x="50" y="159"/>
      <point x="50" y="334" type="qcurve" smooth="yes"/>
      <point x="50" y="708" type="line" smooth="yes"/>
      <point x="50" y="843"/>
      <point x="222" y="1020"/>
      <point x="342" y="1020" type="qcurve" smooth="yes"/>
      <point x="346" y="1020" type="line" smooth="yes"/>
      <point x="468" y="1020"/>
      <point x="647" y="843"/>
      <point x="647" y="708" type="qcurve" smooth="yes"/>
      <point x="647" y="334" type="line" smooth="yes"/>
      <point x="647" y="159"/>
      <point x="480" y="-15"/>
      <point x="348" y="-15" type="qcurve" smooth="yes"/>
    </contour>
    <contour>
      <point x="346" y="116" type="line" smooth="yes"/>
      <point x="414" y="116"/>
      <point x="493" y="224"/>
      <point x="493" y="311" type="qcurve" smooth="yes"/>
      <point x="493" y="683" type="line" smooth="yes"/>
      <point x="493" y="771"/>
      <point x="415" y="883"/>
      <point x="346" y="883" type="qcurve" smooth="yes"/>
      <point x="343" y="883" type="line" smooth="yes"/>
      <point x="280" y="883"/>
      <point x="204" y="771"/>
      <point x="204" y="683" type="qcurve" smooth="yes"/>
      <point x="204" y="311" type="line" smooth="yes"/>
      <point x="204" y="224"/>
      <point x="278" y="116"/>
      <point x="343" y="116" type="qcurve" smooth="yes"/>
    </contour>
  </outline>
</glyph>
<glyph name="p" format="2">
  <advance width="761"/>
  <unicode hex="0070"/>
  <outline>
    <contour>
      <point x="106" y="-500" type="line"/>
      <point x="106" y="1000" type="line"/>
      <point x="260" y="1000" type="line"/>
      <point x="260" y="-500" type="line"/>
    </contour>
    <contour>
      <point x="166" y="519" type="line" smooth="yes"/>
      <point x="166" y="765"/>
      <point x="334" y="1020"/>
      <point x="439" y="1020" type="qcurve" smooth="yes"/>
      <point x="452" y="1020" type="line" smooth="yes"/>
      <point x="563" y="1020"/>
      <point x="711" y="852"/>
      <point x="711" y="714" type="qcurve" smooth="yes"/>
      <point x="711" y="335" type="line" smooth="yes"/>
      <point x="711" y="176"/>
      <point x="565" y="-15"/>
      <point x="427" y="-15" type="qcurve" smooth="yes"/>
      <point x="422" y="-15" type="line" smooth="yes"/>
      <point x="305" y="-15"/>
      <point x="166" y="258"/>
      <point x="166" y="484" type="qcurve" smooth="yes"/>
    </contour>
    <contour>
      <point x="262" y="685" type="qcurve" smooth="yes"/>
      <point x="262" y="379" type="line" smooth="yes"/>
      <point x="262" y="252"/>
      <point x="341" y="116"/>
      <point x="413" y="116" type="qcurve" smooth="yes"/>
      <point x="417" y="116" type="line" smooth="yes"/>
      <point x="483" y="116"/>
      <point x="557" y="221"/>
      <point x="557" y="310" type="qcurve" smooth="yes"/>
      <point x="557" y="685" type="line" smooth="yes"/>
      <point x="557" y="777"/>
      <point x="475" y="883"/>
      <point x="408" y="883" type="qcurve" smooth="yes"/>
      <point x="404" y="883" type="line" smooth="yes"/>
      <point x="343" y="883"/>
      <point x="262" y="774"/>
    </contour>
  </outline>
</glyph>
<glyph name="r" format="2">
  <advance width="693"/>
  <unicode hex="0072"/>
  <outline>
    <contour>
      <point x="106" y="0" type="line"/>
      <point x="106" y="1000" type="line"/>
      <point x="266" y="1000" type="line"/>
      <point x="266" y="0" type="line"/>
    </contour>
    <contour>
      <point x="206" y="823" type="line"/>
      <point x="278" y="918"/>
      <point x="497" y="1040"/>
      <point x="622" y="1040" type="qcurve" smooth="yes"/>
      <point x="635" y="1040"/>
      <point x="661" y="1039"/>
      <point x="673" y="1038" type="qcurve"/>
      <point x="673" y="887" type="line"/>
      <point x="662" y="888"/>
      <point x="636" y="890"/>
      <point x="622" y="890" type="qcurve" smooth="yes"/>
      <point x="490" y="890"/>
      <point x="306" y="787"/>
      <point x="228" y="699" type="qcurve"/>
    </contour>
  </outline>
</glyph>
<glyph name="s" format="2">
  <advance width="961"/>
  <unicode hex="0073"/>
  <outline>
    <contour>
      <point x="748" y="276" type="line" smooth="yes"/>
      <point x="748" y="353"/>
      <point x="655" y="423"/>
      <point x="471" y="465" type="qcurve" smooth="yes"/>
      <point x="265" y="512"/>
      <point x="84" y="639"/>
      <point x="84" y="772" type="qcurve" smooth="yes"/>
      <point x="84" y="783" type="line" smooth="yes"/>
      <point x="84" y="899"/>
      <point x="283" y="1040"/>
      <point x="463" y="1040" type="qcurve" smooth="yes"/>
      <point x="472" y="1040" type="line" smooth="yes"/>
      <point x="663" y="1040"/>
      <point x="842" y="893"/>
      <point x="851" y="774" type="qcurve" smooth="yes"/>
      <point x="856" y="708" type="line"/>
      <point x="713" y="708" type="line"/>
      <point x="713" y="750" type="line" smooth="yes"/>
      <point x="713" y="826"/>
      <point x="587" y="899"/>
      <point x="469" y="899" type="qcurve" smooth="yes"/>
      <point x="461" y="899" type="line" smooth="yes"/>
      <point x="349" y="899"/>
      <point x="244" y="841"/>
      <point x="244" y="789" type="qcurve" smooth="yes"/>
      <point x="244" y="781" type="line" smooth="yes"/>
      <point x="244" y="720"/>
      <point x="318" y="660"/>
      <point x="513" y="612" type="qcurve" smooth="yes"/>
      <point x="718" y="562"/>
      <point x="904" y="438"/>
      <point x="904" y="299" type="qcurve" smooth="yes"/>
      <point x="904" y="268" type="line" smooth="yes"/>
      <point x="904" y="142"/>
      <point x="691" y="-27"/>
      <point x="487" y="-27" type="qcurve" smooth="yes"/>
      <point x="484" y="-27" type="line" smooth="yes"/>
      <point x="259" y="-27"/>
      <point x="50" y="142"/>
      <point x="50" y="263" type="qcurve" smooth="yes"/>
      <point x="50" y="321" type="line"/>
      <point x="201" y="321" type="line"/>
      <point x="201" y="267" type="line" smooth="yes"/>
      <point x="201" y="193"/>
      <point x="357" y="104"/>
      <point x="482" y="104" type="qcurve" smooth="yes"/>
      <point x="487" y="104" type="line" smooth="yes"/>
      <point x="588" y="104"/>
      <point x="748" y="189"/>
      <point x="748" y="264" type="qcurve" smooth="yes"/>
    </contour>
  </outline>
</glyph>
<glyph name="u" format="2">
  <advance width="1090"/>
  <unicode hex="0075"/>
  <outline>
    <contour>
      <point x="984" y="1002" type="line"/>
      <point x="984" y="2" type="line"/>
      <point x="824" y="2" type="line"/>
      <point x="824" y="1002" type="line"/>
    </contour>
    <contour>
      <point x="884" y="199" type="line"/>
      <point x="816" y="104"/>
      <point x="593" y="-38"/>
      <point x="468" y="-38" type="qcurve" smooth="yes"/>
      <point x="308" y="-38"/>
      <point x="94" y="132"/>
      <point x="94" y="302" type="qcurve" smooth="yes"/>
      <point x="94" y="1002" type="line"/>
      <point x="254" y="1002" type="line"/>
      <point x="254" y="342" type="line" smooth="yes"/>
      <point x="254" y="225"/>
      <point x="351" y="112"/>
      <point x="468" y="112" type="qcurve" smooth="yes"/>
      <point x="600" y="112"/>
      <point x="782" y="236"/>
      <point x="862" y="323" type="qcurve"/>
    </contour>
  </outline>
</glyph>
<glyph name="braceright" format="2">
  <advance width="450"/>
  <unicode hex="007D"/>
  <outline>
    <contour>
      <point x="426" y="531" type="qcurve"/>
      <point x="426" y="690" type="line"/>
      <point x="309" y="690"/>
      <point x="224" y="760"/>
      <point x="224.0" y="797.0" type="qcurve" smooth="yes"/>
      <point x="224" y="827"/>
      <point x="279" y="896"/>
      <point x="310" y="938" type="qcurve" smooth="yes"/>
      <point x="342" y="982"/>
      <point x="393" y="1082"/>
      <point x="393" y="1135" type="qcurve" smooth="yes"/>
      <point x="393" y="1245"/>
      <point x="224" y="1476"/>
      <point x="101" y="1526" type="qcurve"/>
      <point x="-30" y="1423" type="line"/>
      <point x="73" y="1389"/>
      <point x="218" y="1236"/>
      <point x="218" y="1148" type="qcurve" smooth="yes"/>
      <point x="218" y="1113"/>
      <point x="173" y="1029"/>
      <point x="144" y="987" type="qcurve" smooth="yes"/>
      <point x="111" y="938"/>
      <point x="57" y="846"/>
      <point x="57" y="812" type="qcurve" smooth="yes"/>
      <point x="57" y="736"/>
      <point x="164" y="637"/>
      <point x="263" y="611" type="qcurve"/>
      <point x="164" y="585"/>
      <point x="57" y="486"/>
      <point x="57" y="410" type="qcurve" smooth="yes"/>
      <point x="57" y="376"/>
      <point x="111" y="284"/>
      <point x="144" y="235" type="qcurve" smooth="yes"/>
      <point x="173" y="193"/>
      <point x="218" y="109"/>
      <point x="218" y="74" type="qcurve" smooth="yes"/>
      <point x="218" y="-14"/>
      <point x="73" y="-127"/>
      <point x="-30" y="-201" type="qcurve"/>
      <point x="101" y="-304" type="line"/>
      <point x="224" y="-214"/>
      <point x="393" y="-23"/>
      <point x="393" y="87" type="qcurve" smooth="yes"/>
      <point x="393" y="140"/>
      <point x="342" y="240"/>
      <point x="310" y="284" type="qcurve" smooth="yes"/>
      <point x="279" y="326"/>
      <point x="224" y="395"/>
      <point x="224" y="425" type="qcurve" smooth="yes"/>
      <point x="224" y="462"/>
      <point x="309" y="531"/>
    </contour>
  </outline>
</glyph>
